<?xml version="1.0" encoding="UTF-8"?>
<svg id="Layer_1" data-name="Layer 1" xmlns="http://www.w3.org/2000/svg" viewBox="0 0 45.33 34.87" width="0" height="0">
  <path d="m20.17,24.91c.17.66.25,1.49.25,2.49s-.08,1.79-.25,2.49h-2.49c.17.66.25,1.49.25,2.49s-.08,1.79-.25,2.49H5.23c-.17-.71-.25-1.54-.25-2.49s.08-1.83.25-2.49h-2.49c-.17-.71-.25-1.54-.25-2.49s.08-1.83.25-2.49H.25c-.17-.71-.25-1.54-.25-2.49s.08-1.83.25-2.49c-.17-.71-.25-1.54-.25-2.49s.08-1.83.25-2.49c-.17-.71-.25-1.54-.25-2.49s.08-1.83.25-2.49h2.49c-.17-.71-.25-1.54-.25-2.49s.08-1.83.25-2.49h2.49c-.17-.71-.25-1.54-.25-2.49s.08-1.83.25-2.49h12.45c.17.66.25,1.49.25,2.49s-.08,1.79-.25,2.49h2.49c.17.66.25,1.49.25,2.49s-.08,1.79-.25,2.49h-4.98c-.17-.71-.25-1.54-.25-2.49s.08-1.83.25-2.49h-7.47c.17.66.25,1.49.25,2.49s-.08,1.79-.25,2.49h-2.49c.17.66.25,1.49.25,2.49s-.08,1.79-.25,2.49c.17.66.25,1.49.25,2.49s-.08,1.79-.25,2.49c.17.66.25,1.49.25,2.49s-.08,1.79-.25,2.49h2.49c.17.66.25,1.49.25,2.49s-.08,1.79-.25,2.49h7.47c-.17-.71-.25-1.54-.25-2.49s.08-1.83.25-2.49h4.98Z"/>
  <path d="m45.08,14.94h-2.49c.17.66.25,1.49.25,2.49s-.08,1.79-.25,2.49h2.49c.17.66.25,1.49.25,2.49s-.08,1.79-.25,2.49c.17.66.25,1.49.25,2.49s-.08,1.79-.25,2.49h-2.49c.17.66.25,1.49.25,2.49s-.08,1.79-.25,2.49h-17.43c-.17-.71-.25-1.54-.25-2.49s.08-1.83.25-2.49c-.17-.71-.25-1.54-.25-2.49s.08-1.83.25-2.49c-.17-.71-.25-1.54-.25-2.49s.08-1.83.25-2.49c-.17-.71-.25-1.54-.25-2.49s.08-1.83.25-2.49c-.17-.71-.25-1.54-.25-2.49s.08-1.83.25-2.49c-.17-.71-.25-1.54-.25-2.49s.08-1.83.25-2.49c-.17-.71-.25-1.54-.25-2.49s.08-1.83.25-2.49h17.43c.17.66.25,1.49.25,2.49s-.08,1.79-.25,2.49h2.49c.17.66.25,1.49.25,2.49s-.08,1.79-.25,2.49c.17.66.25,1.49.25,2.49s-.08,1.79-.25,2.49Zm-5.23-2.49c0-1,.08-1.83.25-2.49-.17-.71-.25-1.54-.25-2.49s.08-1.83.25-2.49h-9.96c.17.66.25,1.49.25,2.49s-.08,1.79-.25,2.49c.17.66.25,1.49.25,2.49s-.08,1.79-.25,2.49h9.96c-.17-.71-.25-1.54-.25-2.49Zm0,9.96c0-1,.08-1.83.25-2.49h-9.96c.17.66.25,1.49.25,2.49s-.08,1.79-.25,2.49c.17.66.25,1.49.25,2.49s-.08,1.79-.25,2.49h9.96c-.17-.71-.25-1.54-.25-2.49s.08-1.83.25-2.49c-.17-.71-.25-1.54-.25-2.49Z"/>
</svg>