<?xml version="1.0" encoding="UTF-8"?>
<svg id="Layer_1" data-name="Layer 1" xmlns="http://www.w3.org/2000/svg" viewBox="0 0 32 32">
  <path d="m16,0c4.43,0,8.2,1.55,11.3,4.65,3.13,3.13,4.7,6.92,4.7,11.35s-1.57,8.2-4.7,11.3c-3.1,3.13-6.87,4.7-11.3,4.7s-8.22-1.57-11.35-4.7C1.55,24.2,0,20.43,0,16S1.55,7.78,4.65,4.65C7.78,1.55,11.57,0,16,0m.45,17.6l2,.25c.47.17.7.57.7,1.2,0,.57-.22.97-.65,1.2l-1.8.3h-1.9v-2.95h1.65m-1.65-5.1h1.3l1.8.25c.33.2.5.58.5,1.15s-.18.95-.55,1.15l-1.75.25h-1.3v-2.8m2.05-2.5h-4.85v13h5.5c1.7,0,2.9-.4,3.6-1.2.6-.7.9-1.5.9-2.4,0-.83-.23-1.52-.7-2.05-.47-.57-1.08-.93-1.85-1.1l.45-.2.45-.35c.63-.47.95-1.22.95-2.25,0-.83-.28-1.58-.85-2.25l-1.35-.85-2.25-.35"/>
</svg>